<svg xmlns="http://www.w3.org/2000/svg" width="200" height="200" viewBox="0 0 200 200"><defs><linearGradient id="a" x1="0%" x2="100%" y1="0%" y2="100%"><stop offset="0%" stop-color="#2563EB"/><stop offset="100%" stop-color="#9333EA"/></linearGradient></defs><g fill="none"><rect width="200" height="200" fill="url(#a)" rx="100"/><path fill="#FFF" d="M100 137.5a37.5 37.5 0 100-75 37.5 37.5 0 000 75zm0 15.625c-29.125 0-53.125-23.953-53.125-53.125S70.875 46.875 100 46.875 153.125 70.83 153.125 100c0 2.187-.125 4.375-.312 6.516a6.25 6.25 0 01-6.203 5.984h-93.172a6.25 6.25 0 01-6.203-5.984c-.235-2.14-.352-4.33-.352-6.516 0-25.734 20.899-46.625 46.625-46.625s46.625 20.89 46.625 46.625c0 2.187-.125 4.375-.312 6.516a6.25 6.25 0 01-6.204 5.984h-36.828a6.25 6.25 0 110-12.5h20.883a3.125 3.125 0 100-6.25H68.75a3.125 3.125 0 100 6.25h15.625v12.5H68.75a18.75 18.75 0 00-18.75 18.75c0 10.352 8.398 18.75 18.75 18.75h62.5a18.75 18.75 0 0018.75-18.75c0-10.352-8.398-18.75-18.75-18.75h-9.375a6.25 6.25 0 110-12.5h9.375c17.29 0 31.25 13.96 31.25 31.25S117.29 137.5 100 137.5z"/></g></svg>