<svg xmlns="http://www.w3.org/2000/svg" width="200" height="200" viewBox="0 0 200 200"><defs><linearGradient id="a" x1="0%" x2="100%" y1="0%" y2="100%"><stop offset="0%" stop-color="#EC4899"/><stop offset="100%" stop-color="#F59E0B"/></linearGradient></defs><g fill="none"><rect width="200" height="200" fill="url(#a)" rx="100"/><path fill="#FFF" d="M100 62.5a37.5 37.5 0 110 75 37.5 37.5 0 010-75zm0 12.5a25 25 0 100 50 25 25 0 000-50zm0-31.25c-34.531 0-62.5 27.969-62.5 62.5s27.969 62.5 62.5 62.5 62.5-27.969 62.5-62.5-27.969-62.5-62.5-62.5zm0 12.5c27.625 0 50 22.375 50 50s-22.375 50-50 50-50-22.375-50-50 22.375-50 50-50zm25 25a6.25 6.25 0 11-12.5 0 6.25 6.25 0 0112.5 0zm-37.5 0a6.25 6.25 0 11-12.5 0 6.25 6.25 0 0112.5 0zm18.75 31.25c-9.375 0-17.5 5-21.875 12.5h43.75c-4.375-7.5-12.5-12.5-21.875-12.5z"/></g></svg>