<svg xmlns="http://www.w3.org/2000/svg" width="200" height="200" viewBox="0 0 200 200"><defs><linearGradient id="a" x1="0%" x2="100%" y1="0%" y2="100%"><stop offset="0%" stop-color="#10B981"/><stop offset="100%" stop-color="#3B82F6"/></linearGradient></defs><g fill="none"><rect width="200" height="200" fill="url(#a)" rx="100"/><path fill="#FFF" d="M100 50c-27.625 0-50 22.375-50 50s22.375 50 50 50 50-22.375 50-50-22.375-50-50-50zm0 12.5c20.734 0 37.5 16.766 37.5 37.5s-16.766 37.5-37.5 37.5-37.5-16.766-37.5-37.5 16.766-37.5 37.5-37.5zm-18.75 18.75a6.25 6.25 0 11-12.5 0 6.25 6.25 0 0112.5 0zm37.5 0a6.25 6.25 0 11-12.5 0 6.25 6.25 0 0112.5 0zm-18.75 18.75c9.375 0 17.5 5.203 21.875 12.5H78.125c4.375-7.297 12.5-12.5 21.875-12.5z"/></g></svg>